<?xml version="1.0" encoding="utf-8"?>
<!-- Generator: Adobe Illustrator 17.0.0, SVG Export Plug-In . SVG Version: 6.00 Build 0)  -->
<!DOCTYPE svg PUBLIC "-//W3C//DTD SVG 1.1//EN" "http://www.w3.org/Graphics/SVG/1.1/DTD/svg11.dtd">
<svg version="1.1" id="Layer_1" xmlns="http://www.w3.org/2000/svg" xmlns:xlink="http://www.w3.org/1999/xlink" x="0px" y="0px"
	 width="114.038px" height="32.095px" viewBox="0 0 114.038 32.095" enable-background="new 0 0 114.038 32.095"
	 xml:space="preserve">
<g>
	<g>
		<g>
			<path fill="#41B983" d="M21.969,3.779c-0.046-2.057-1.702-3.716-3.759-3.766V0.011v0H18.2v0H4.725v3.771h12.916v0l0.001,0
				c0.307,0,0.557,0.249,0.557,0.556h0v10.519c-0.007,0.297-0.246,0.536-0.543,0.543h-3.395h-2.13H7.502H7.371
				c-0.545-0.034-0.978-0.486-0.978-1.04c0-0.366,0.19-0.686,0.475-0.872l0.2-0.101c0.018-0.007,0.035-0.016,0.054-0.022
				l1.856-0.943l5.561-2.809l-1.408-3.516L5.549,9.929c-1.721,0.733-2.927,2.44-2.927,4.429c0,0.413,0.052,0.815,0.15,1.197v0.003
				l0.001,0c0.533,2.077,2.418,3.612,4.661,3.612c0.01,0,0.02-0.001,0.03-0.001l10.624,0c0.009,0,0.018,0.001,0.027,0.001
				c0.009,0,0.018-0.001,0.027-0.001h0.059h0.009v-0.002c2.057-0.05,3.713-1.709,3.759-3.767h0.002V3.782V3.779H21.969z"/>
			<path fill="#41B983" d="M61.47,3.787c-0.046-2.057-1.702-3.716-3.758-3.766V0.019v0h-0.011v0h-9.624v0.002
				c-0.031,0-0.062,0.002-0.092,0.002V0.019h-0.005v0.005c-2.049,0.051-3.7,1.7-3.755,3.748h0.008
				c-0.001,0.033-0.002,0.067-0.002,0.1h-0.005v11.443v0v0v0.084v0.003h0.002c0.046,2.057,1.702,3.716,3.758,3.766v0.002v0h0.011v0
				h9.624V19.17c0.031,0,0.062-0.002,0.092-0.002v0.005h0.005v-0.005c2.049-0.051,3.7-1.7,3.755-3.748h-0.007
				c0.001-0.033,0.002-0.067,0.002-0.1h0.005V3.79V3.787H61.47z M48.552,15.401c-0.308,0-0.557-0.249-0.558-0.556h-0.002
				L47.986,4.346h0c0.001-0.307,0.25-0.556,0.557-0.556l0.001,0v0h8.597v0l0.001,0c0.307,0,0.557,0.249,0.557,0.556h0.003
				l0.006,10.507c-0.006,0.302-0.252,0.546-0.555,0.547v0.001H48.552L48.552,15.401L48.552,15.401z"/>
			<path fill="#41B983" d="M89.621,19.175L89.618,7.717V0.011c-2.076,0.056-3.743,1.747-3.76,3.832l-0.002,0v15.332H89.621z"/>
			<path fill="#41B983" d="M37.883,15.403L37.883,15.403l-9.066-0.001v0c0,0-0.001,0-0.001,0c-0.308,0-0.557-0.249-0.558-0.556
				h-0.002L28.248,0.012h-0.005c-2.077,0.056-3.745,1.753-3.75,3.843h-0.005v11.547v0.003h0.002
				c0.046,2.057,1.702,3.716,3.758,3.766v0.002v0h0.011v0h9.624v-0.002c2.094,0,3.78-1.687,3.836-3.768H37.883z"/>
			<path fill="#41B983" d="M110.182,13.798l0.004-0.004l-4.184-3.801c-0.115-0.102-0.188-0.244-0.188-0.402
				c0-0.156,0.071-0.296,0.184-0.398l4.187-3.805l-0.004-0.004c1.62-1.48,1.645-3.857,0.077-5.366l0,0l-0.009-0.009l-8.042,7.295
				l-0.002-0.002c-0.119,0.108-0.274,0.162-0.43,0.162c-0.156-0.001-0.311-0.055-0.43-0.162l-0.002,0.002l-8.042-7.296l-0.004,0.004
				l0,0c-1.574,1.509-1.55,3.889,0.072,5.371l-0.004,0.004l4.175,3.793v0.001c0.119,0.103,0.194,0.247,0.194,0.408
				c0,0.161-0.075,0.305-0.194,0.408v0.002l-4.175,3.793l0.004,0.004c-1.622,1.482-1.646,3.862-0.072,5.371l0,0l0.004,0.004
				l8.042-7.296l0.002,0.002c0.119-0.108,0.274-0.162,0.43-0.162c0.156,0.001,0.311,0.055,0.43,0.162l0.002-0.002l8.042,7.296
				l0.004-0.004l0,0C111.827,17.66,111.804,15.28,110.182,13.798z"/>
			<path fill="#41B983" d="M63.993,3.779c0.046-2.057,1.702-3.716,3.759-3.766V0.011v0h0.011v0h13.475v3.771H68.321v0l-0.001,0
				c-0.307,0-0.557,0.249-0.557,0.556h0v10.519c0.007,0.297,0.246,0.536,0.543,0.543h3.395h2.13h4.629h0.131
				c0.545-0.034,0.978-0.486,0.978-1.04c0-0.366-0.19-0.686-0.475-0.872l-0.2-0.101c-0.018-0.007-0.035-0.016-0.054-0.022
				l-1.856-0.943l-5.561-2.809l1.408-3.516l7.584,3.832c1.721,0.733,2.927,2.44,2.927,4.429c0,0.413-0.052,0.815-0.15,1.197v0.003
				l-0.001,0c-0.533,2.077-2.418,3.612-4.661,3.612c-0.01,0-0.02-0.001-0.03-0.001l-10.624,0c-0.009,0-0.018,0.001-0.027,0.001
				c-0.009,0-0.018-0.001-0.027-0.001h-0.059h-0.009v-0.002c-2.057-0.05-3.713-1.709-3.759-3.767h-0.002V3.782V3.779H63.993z"/>
		</g>
	</g>
	<g>
		<path fill="#686868" d="M4.615,32.005v-5.485h-1.97v-0.586c0-0.165,0.093-0.248,0.281-0.248h4.302
			c0.188,0,0.282,0.083,0.282,0.248v0.586H5.527v5.485H4.615z"/>
		<path fill="#686868" d="M16.125,32.084c-0.428,0-0.772-0.036-1.031-0.107c-0.259-0.072-0.497-0.22-0.715-0.445
			c-0.218-0.225-0.373-0.565-0.467-1.019s-0.141-1.045-0.141-1.774c0-0.683,0.064-1.244,0.192-1.683
			c0.127-0.439,0.315-0.758,0.563-0.958c0.248-0.199,0.5-0.33,0.755-0.394c0.255-0.064,0.57-0.092,0.946-0.084
			c0.886,0.008,1.49,0.03,1.813,0.068c0.083,0.015,0.151,0.043,0.203,0.084s0.075,0.096,0.067,0.163
			c0,0.045-0.004,0.115-0.011,0.208c-0.008,0.094-0.014,0.18-0.017,0.259c-0.004,0.079-0.005,0.122-0.005,0.129
			c-0.744-0.045-1.427-0.067-2.05-0.067c-0.24,0-0.438,0.019-0.591,0.056c-0.154,0.037-0.302,0.118-0.445,0.242
			c-0.143,0.124-0.251,0.314-0.326,0.569c-0.076,0.256-0.12,0.59-0.136,1.002h2.996v0.845h-2.996c0,0.263,0.006,0.471,0.017,0.625
			c0.011,0.154,0.045,0.334,0.101,0.541c0.057,0.206,0.133,0.364,0.231,0.473c0.098,0.109,0.242,0.205,0.434,0.287
			c0.192,0.083,0.426,0.124,0.704,0.124c1.036,0,1.712-0.03,2.027-0.09c0.038,0.293,0.057,0.495,0.057,0.608
			c0,0.143-0.09,0.225-0.27,0.248C17.645,32.054,17.011,32.084,16.125,32.084z"/>
		<path fill="#686868" d="M27.612,32.084c-0.345,0-0.636-0.021-0.872-0.062c-0.237-0.041-0.473-0.128-0.71-0.259
			c-0.237-0.131-0.426-0.317-0.569-0.558c-0.143-0.24-0.257-0.567-0.344-0.98c-0.086-0.413-0.129-0.908-0.129-1.487
			c0-0.548,0.056-1.021,0.169-1.419c0.113-0.398,0.254-0.706,0.423-0.924c0.169-0.218,0.381-0.389,0.636-0.513
			c0.255-0.124,0.496-0.201,0.721-0.231c0.225-0.03,0.48-0.041,0.766-0.034c0.676,0.015,1.175,0.045,1.498,0.09
			c0.142,0.023,0.226,0.086,0.248,0.192c0.023,0.083,0.015,0.312-0.022,0.687c-0.654-0.052-1.209-0.086-1.667-0.101
			c-0.256-0.007-0.481,0.013-0.676,0.062s-0.382,0.147-0.563,0.293c-0.18,0.147-0.317,0.376-0.411,0.687
			c-0.094,0.312-0.141,0.696-0.141,1.154c0,0.953,0.12,1.616,0.36,1.988c0.24,0.372,0.702,0.558,1.385,0.558
			c0.623,0,1.216-0.056,1.78-0.169c0.037,0.225,0.056,0.405,0.056,0.54c0,0.203-0.105,0.319-0.315,0.349
			C28.753,32.039,28.213,32.084,27.612,32.084z"/>
		<path fill="#686868" d="M36.644,32.005c-0.067,0-0.127-0.026-0.179-0.079c-0.053-0.053-0.08-0.116-0.08-0.192v-5.777
			c0-0.075,0.027-0.139,0.08-0.192c0.052-0.053,0.112-0.079,0.179-0.079h0.688v2.635h2.906v-2.635h0.676
			c0.075,0,0.139,0.026,0.192,0.079c0.052,0.053,0.079,0.117,0.079,0.192v5.777c0,0.075-0.027,0.139-0.079,0.192
			c-0.053,0.053-0.117,0.079-0.192,0.079h-0.676v-2.827h-2.906v2.827H36.644z"/>
		<path fill="#686868" d="M48.594,32.005c-0.18,0-0.27-0.083-0.27-0.248v-5.823c0-0.165,0.09-0.248,0.27-0.248h0.462
			c0.128,0,0.244,0.071,0.349,0.214l2.804,4.46v-4.674h0.665c0.187,0,0.281,0.083,0.281,0.248v5.823
			c0,0.165-0.094,0.248-0.281,0.248h-0.417c-0.135,0-0.251-0.071-0.349-0.214L49.27,27.32v4.685H48.594z"/>
		<path fill="#686868" d="M62.785,32.084c-0.563,0-1.025-0.066-1.385-0.197c-0.36-0.131-0.638-0.347-0.834-0.648
			c-0.195-0.3-0.328-0.646-0.4-1.036c-0.071-0.39-0.107-0.89-0.107-1.498c0-1.171,0.22-1.978,0.659-2.421
			c0.439-0.443,1.128-0.665,2.067-0.665c0.931,0,1.62,0.222,2.067,0.665c0.447,0.443,0.67,1.25,0.67,2.421
			c0,1.209-0.188,2.074-0.563,2.596C64.584,31.823,63.859,32.084,62.785,32.084z M62.797,31.217c0.713,0,1.186-0.184,1.419-0.552
			c0.232-0.368,0.349-1.017,0.349-1.948c0-0.871-0.133-1.464-0.4-1.78c-0.267-0.315-0.722-0.473-1.368-0.473
			c-0.638,0-1.089,0.158-1.352,0.473c-0.263,0.315-0.394,0.909-0.394,1.78c0,0.946,0.111,1.599,0.332,1.96
			C61.605,31.037,62.076,31.217,62.797,31.217z"/>
		<path fill="#686868" d="M72.696,32.005c-0.173,0-0.259-0.09-0.259-0.27v-5.789c0-0.075,0.024-0.137,0.073-0.186
			c0.048-0.049,0.111-0.073,0.186-0.073h0.688v5.507h2.782v0.811H72.696z"/>
		<path fill="#686868" d="M85.276,32.084c-0.563,0-1.025-0.066-1.385-0.197c-0.36-0.131-0.638-0.347-0.834-0.648
			c-0.195-0.3-0.328-0.646-0.4-1.036c-0.071-0.39-0.107-0.89-0.107-1.498c0-1.171,0.22-1.978,0.659-2.421
			c0.439-0.443,1.128-0.665,2.067-0.665c0.931,0,1.62,0.222,2.067,0.665c0.447,0.443,0.67,1.25,0.67,2.421
			c0,1.209-0.188,2.074-0.563,2.596C87.075,31.823,86.35,32.084,85.276,32.084z M85.288,31.217c0.713,0,1.186-0.184,1.419-0.552
			c0.232-0.368,0.349-1.017,0.349-1.948c0-0.871-0.133-1.464-0.4-1.78s-0.722-0.473-1.368-0.473c-0.638,0-1.089,0.158-1.352,0.473
			c-0.263,0.315-0.394,0.909-0.394,1.78c0,0.946,0.111,1.599,0.332,1.96C84.096,31.037,84.567,31.217,85.288,31.217z"/>
		<path fill="#686868" d="M97.304,32.084c-0.3,0-0.566-0.022-0.8-0.067c-0.232-0.045-0.469-0.137-0.709-0.276
			c-0.241-0.139-0.438-0.328-0.591-0.569c-0.154-0.24-0.28-0.565-0.377-0.974c-0.098-0.409-0.143-0.891-0.136-1.447
			c0.008-0.533,0.07-0.997,0.186-1.391c0.117-0.394,0.265-0.702,0.445-0.924s0.401-0.396,0.664-0.524
			c0.263-0.128,0.514-0.21,0.755-0.248c0.24-0.037,0.507-0.052,0.8-0.045c0.503,0.008,1.036,0.041,1.599,0.101
			c0.172,0.022,0.259,0.112,0.259,0.27c0,0.053-0.002,0.109-0.006,0.169c-0.004,0.06-0.009,0.131-0.017,0.214
			c-0.008,0.083-0.011,0.147-0.011,0.192c-0.616-0.053-1.187-0.079-1.712-0.079c-0.323,0-0.593,0.028-0.81,0.085
			c-0.218,0.056-0.421,0.163-0.608,0.321c-0.188,0.158-0.327,0.393-0.417,0.704c-0.09,0.312-0.135,0.704-0.135,1.177
			c0,0.938,0.122,1.58,0.366,1.926s0.704,0.518,1.38,0.518c0.173,0,0.368-0.019,0.585-0.056c0.218-0.037,0.391-0.075,0.518-0.112
			c0.128-0.037,0.207-0.064,0.237-0.079v-1.757H97.44V28.39h2.005c0.18,0,0.27,0.09,0.27,0.27v2.759c0,0.15-0.067,0.259-0.203,0.327
			c-0.202,0.075-0.516,0.15-0.941,0.225C98.147,32.047,97.725,32.084,97.304,32.084z"/>
		<path fill="#686868" d="M108.375,32.005v-2.23l-2.095-3.852c-0.038-0.052-0.039-0.105-0.005-0.158
			c0.033-0.053,0.088-0.079,0.163-0.079h0.744l1.667,3.187c0.195-0.323,0.732-1.385,1.61-3.187h0.755
			c0.075,0,0.127,0.026,0.158,0.079c0.03,0.053,0.03,0.105,0,0.158l-2.061,3.852v2.23H108.375z"/>
	</g>
</g>
</svg>
