<?xml version="1.0" encoding="utf-8"?>
<!-- Generator: Adobe Illustrator 17.0.0, SVG Export Plug-In . SVG Version: 6.00 Build 0)  -->
<!DOCTYPE svg PUBLIC "-//W3C//DTD SVG 1.1//EN" "http://www.w3.org/Graphics/SVG/1.1/DTD/svg11.dtd">
<svg version="1.1" id="Layer_1" xmlns="http://www.w3.org/2000/svg" xmlns:xlink="http://www.w3.org/1999/xlink" x="0px" y="0px"
	 width="100px" height="100px" viewBox="0 0 100 100" enable-background="new 0 0 100 100" xml:space="preserve">
<path fill="#41B983" d="M99.989,19.968C99.751,9.336,91.192,0.762,80.564,0.503V0.491v0h-0.055v0H10.868v19.491h66.753v0.001
	l0.007-0.001c1.589,0,2.877,1.286,2.88,2.874h0.001v54.366c-0.037,1.536-1.271,2.77-2.808,2.806H60.154H49.148H25.224h-0.677
	c-2.819-0.175-5.053-2.511-5.053-5.374c0-1.892,0.982-3.545,2.457-4.507l1.034-0.522c0.094-0.036,0.183-0.083,0.279-0.113
	l9.594-4.875l28.741-14.52l-7.277-18.173L15.128,51.751C6.235,55.541,0,64.362,0,74.639c0,2.136,0.27,4.21,0.777,6.188v0.018
	l0.004-0.002C3.536,91.577,13.277,99.509,24.87,99.509c0.052,0,0.104-0.003,0.156-0.003l54.904,0c0.047,0,0.094,0.004,0.141,0.004
	c0.047,0,0.093-0.003,0.14-0.004h0.305h0.048v-0.009c10.628-0.259,19.189-8.834,19.425-19.468H100V19.982v-0.014H99.989z"/>
</svg>
